<?xml version="1.0" encoding="UTF-8" standalone="no"?>
<svg
   viewBox="0 0 16 16"
   version="1.1"
   id="svg14"
   sodipodi:docname="youtube.svg"
   inkscape:version="1.1.1 (3bf5ae0d25, 2021-09-20)"
   xmlns:inkscape="http://www.inkscape.org/namespaces/inkscape"
   xmlns:sodipodi="http://sodipodi.sourceforge.net/DTD/sodipodi-0.dtd"
   xmlns="http://www.w3.org/2000/svg"
   xmlns:svg="http://www.w3.org/2000/svg">
  <defs
     id="defs18" />
  <sodipodi:namedview
     id="namedview16"
     pagecolor="#ffffff"
     bordercolor="#666666"
     borderopacity="1.0"
     inkscape:pageshadow="2"
     inkscape:pageopacity="0.0"
     inkscape:pagecheckerboard="0"
     showgrid="false"
     inkscape:snap-bbox="true"
     inkscape:bbox-nodes="true"
     inkscape:snap-page="true"
     inkscape:zoom="25.75"
     inkscape:cx="19.436893"
     inkscape:cy="12.15534"
     inkscape:window-width="1920"
     inkscape:window-height="1000"
     inkscape:window-x="1920"
     inkscape:window-y="44"
     inkscape:window-maximized="1"
     inkscape:current-layer="svg14" />
  <g
     id="g946"
     transform="matrix(0.1024125,0,0,0.1024125,-0.12655843,2.3653844)">
    <path
       d="M 154,17.5 C 152.18,10.77 146.93,5.5 140.2,3.7 131.16,0.21 43.6,-1.5 18.2,3.8 11.47,5.62 6.2,10.87 4.4,17.6 0.32,35.5 0.01,74.2 4.5,92.5 c 1.82,6.73 7.07,12 13.8,13.8 17.9,4.12 103,4.7 122,0 6.73,-1.82 12,-7.07 13.8,-13.8 4.35,-19.5 4.66,-55.8 -0.1,-75 z"
       fill="#ff0000"
       id="path877" />
    <path
       d="M 105,55 64.2,31.6 v 46.8 z"
       fill="#ffffff"
       id="path879" />
  </g>
</svg>
